<?xml version="1.0" encoding="utf-8"?>
<!-- Generator: Adobe Illustrator 19.0.0, SVG Export Plug-In . SVG Version: 6.00 Build 0)  -->
<svg version="1.1" id="图层_1" xmlns="http://www.w3.org/2000/svg" xmlns:xlink="http://www.w3.org/1999/xlink" x="0px" y="0px"
	 viewBox="27 7 90 23" style="enable-background:new 27 7 90 23;" xml:space="preserve">
<style type="text/css">
	.st0{fill:#FFFFFF;}
</style>
<g>
	<rect x="27" y="21.9" class="st0" width="7.9" height="7.9"/>
	<path class="st0" d="M50.2,9.5C47.7,6.2,42,6.2,36.5,9.1l0,0c-0.3,0.1-0.6,0.3-0.8,0.4c-3.2,1.9-5.6,4.6-6.8,7.3
		c4.9-3.7,10.6-4.4,13-1.5c2.5,3,0.4,8.8-4.7,13c-0.7,0.6-1.5,1.1-2.2,1.6l0,0c2.9-0.4,6.2-1.9,9.2-4.2
		C50.5,20.7,53.2,13.5,50.2,9.5"/>
	<path class="st0" d="M59.5,18.2c-0.1,0.3-0.2,0.6-0.2,0.7l-0.5,1.5c-0.1,0.4-0.4,1-0.7,1.7s-0.5,1.2-0.6,1.4l-0.3,0.6
		c-0.1-0.1-0.1-0.2-0.2-0.3l-1-1l-0.3-0.3c0.3-0.4,0.6-0.9,0.8-1.2c0.2-0.3,0.4-0.8,0.6-1.3c0.2-0.5,0.4-1,0.5-1.3s0.2-0.8,0.4-1.4
		C58.4,17.5,58.9,17.9,59.5,18.2 M56.5,14.1l0.3-0.5c0.7,0.5,1.5,1.1,2.3,1.7c-0.1,0.2-0.2,0.3-0.2,0.4l-0.5,0.9l-0.2,0.3
		c-0.7-0.6-1.1-0.9-1.4-1.1l-1-0.6C56.1,14.7,56.4,14.3,56.5,14.1 M57.5,9.8c1,0.8,1.5,1.2,1.6,1.3l0.6,0.6
		c-0.1,0.2-0.3,0.3-0.4,0.6c-0.1,0.2-0.3,0.5-0.7,1c-0.2-0.2-0.5-0.4-0.9-0.8c-0.4-0.3-0.7-0.6-0.8-0.6l-0.7-0.5
		C56.7,10.7,57.1,10.3,57.5,9.8 M59.3,16.3v-1.7l1.6,0.1h2.8v-0.6h-1.8h-1.3v-1.5h1.3h1.8v-0.5h-2.3h-1.5v-1.6h1.6h2.2V9.6h1.8v0.9
		h2.7h1.5v1.6h-1.5h-2.8v0.5h2.1h1.3v1.5h-1.2h-2.2v0.6h2.9H70v1.6l-1.6-0.1h-7.6L59.3,16.3z M60.4,16.7h1.8h5.1h1.6v2v4.2
		c0,0.3-0.1,0.7-0.2,0.9c-0.1,0.2-1,0.4-2.5,0.4c0-0.1,0-0.3-0.1-0.6c0-0.2-0.1-0.5-0.2-0.8l-0.2-0.4c0.2,0,0.4,0,0.6,0
		c0.2,0,0.3,0,0.4,0c0.2,0,0.3,0,0.3-0.1s0.1-0.2,0.1-0.3v-0.5h-4.8v1.3v1.1h-1.8v-1.5v-4L60.4,16.7z M62.2,20.5H67v-0.6h-4.8V20.5z
		 M62.2,18.7H67v-0.6h-4.8V18.7z"/>
	<path class="st0" d="M77.3,10.7c-0.3,0.3-0.5,0.5-0.6,0.7c-0.1,0.2-0.6,0.6-1.3,1.3H76v1.2v2.6v1.6h-1.9v-1.6v-2.7l-1.5,1.1
		c-0.3-0.6-0.5-1.1-0.7-1.3l-0.4-0.5c1.3-0.4,2.2-1,2.8-1.8c0.6-0.8,1-1.3,1.3-1.8C76.1,10,76.7,10.4,77.3,10.7 M71.7,18.9l1.7,0.1
		h4.2v-1.1h2.1V19h4.1l1.8-0.1v1.9l-1.8-0.1h-4.1v1.7l0.1,1.7h-2.1l0.1-1.7v-1.7h-4.2l-1.7,0.1v-1.9H71.7z M78.9,10h1.9v1.2v1.6
		c0.6-0.2,1-0.4,1.3-0.7c0.3-0.2,0.6-0.4,0.7-0.5l0.6-0.6c0.4,0.6,0.8,1,1,1.2l0.5,0.5c-0.2,0.1-0.4,0.2-0.5,0.2s-0.4,0.3-1.1,0.7
		c-0.7,0.4-1.5,0.8-2.6,1.1v0.8c0,0.2,0,0.3,0.1,0.4c0.1,0.1,0.2,0.2,0.4,0.2s0.5,0,0.9,0c0.3,0,0.6,0,0.8-0.1s0.3-0.2,0.5-0.3
		c0.2-0.2,0.3-0.6,0.4-1.1c0.2,0.1,0.4,0.2,0.6,0.3c0.2,0.1,0.6,0.2,1.2,0.4c-0.1,0.3-0.1,0.6-0.2,0.8c-0.1,0.2-0.2,0.5-0.3,0.8
		c-0.2,0.3-0.3,0.6-0.5,0.7s-0.4,0.2-0.6,0.3C83.8,18,83.5,18,83.1,18c-1.7,0-2.8-0.1-3.2-0.2s-0.7-0.3-0.9-0.4
		c-0.1-0.2-0.2-0.4-0.2-0.8v-1.2c-0.6,0.2-1.1,0.3-1.6,0.4c-0.3-0.8-0.4-1.2-0.6-1.4l-0.3-0.5c0.2,0,0.6,0,1-0.1s0.7-0.1,0.8-0.2
		l0.7-0.2v-2.3L78.9,10z"/>
	<path class="st0" d="M88.2,10.5l1.8,0.1h8.5l1.9-0.1l-0.1,1.9v9.8c0,0.2,0,0.4,0,0.6s-0.1,0.4-0.2,0.5s-0.2,0.2-0.5,0.4
		c-0.3,0.1-1,0.2-2.2,0.3c-0.1-0.3-0.1-0.6-0.2-0.9s-0.2-0.5-0.3-0.7l-0.3-0.6c1,0.1,1.6,0.1,1.7,0s0.1-0.3,0.1-0.5v-9H90v9.2v2.1
		h-2l0.1-2.1v-9.1L88.2,10.5z M90.6,13.3h1.3h4.8h1.2v1.6h-1.2h-4.8h-1.3V13.3z M91.3,15.8l1.4,0.1h3.2l1.5-0.1V17v2.4v1.3l-1.5-0.1
		h-3.2l-1.4,0.1v-1.3V17V15.8z M95.6,17.4H93v1.7h2.6V17.4z"/>
	<path class="st0" d="M106.6,20.1c0.7-1,1-1.9,1.2-2.7c0.1-0.8,0.2-1.7,0.3-2.7v-0.8H105l-1.7,0.1v-1.9l1.7,0.1h4.6
		c-0.2-0.6-0.7-1.1-1.2-1.7c0.6-0.2,1.1-0.5,1.6-1c0.2,0.3,0.5,0.6,0.8,1.1c0.3,0.4,0.6,0.8,0.7,1.1c-0.2,0.1-0.4,0.3-0.6,0.4h4.2
		l1.8-0.1v1.9l-1.9-0.1h-5c0,0.5-0.1,0.8-0.1,1v0.8h4h1.3l-0.1,1.6c0,1.5-0.1,2.6-0.1,3.1c0,0.6-0.1,1.1-0.1,1.6
		c-0.1,0.4-0.2,0.8-0.5,1.1c-0.3,0.3-0.7,0.6-1.2,0.8c-0.6,0.2-1.3,0.3-2.3,0.4c0-0.2-0.1-0.4-0.1-0.7s-0.2-0.6-0.3-0.8l-0.3-0.6
		c0.4,0,0.9,0,1.3,0s0.8-0.1,1.1-0.3c0.2-0.2,0.4-0.4,0.4-0.6c0.1-0.2,0.1-0.6,0.1-1l0.1-1.8v-1h-3.5c-0.1,0.3-0.1,0.6-0.2,0.9
		s-0.2,0.8-0.5,1.6c-0.3,0.8-0.9,1.6-1.7,2.3c-0.9,0.8-1.9,1.4-2.9,1.9c-0.5-0.8-0.8-1.2-0.9-1.3l-0.4-0.5
		C104.8,21.8,105.9,21.1,106.6,20.1"/>
	<polygon class="st0" points="56.9,29.8 56.9,26.6 55.7,26.6 55.7,25.9 58.9,25.9 58.9,26.6 57.7,26.6 57.7,29.8 	"/>
	<path class="st0" d="M59.2,28.6l0.8-0.1c0,0.3,0.1,0.4,0.3,0.6c0.1,0.1,0.3,0.2,0.6,0.2c0.2,0,0.4-0.1,0.6-0.2s0.2-0.2,0.2-0.4
		c0-0.1,0-0.2-0.1-0.2c-0.1-0.1-0.1-0.1-0.3-0.2c-0.1,0-0.3-0.1-0.7-0.2s-0.7-0.2-0.9-0.4c-0.2-0.2-0.4-0.5-0.4-0.8
		c0-0.2,0.1-0.4,0.2-0.6c0.1-0.2,0.3-0.3,0.5-0.4s0.5-0.1,0.8-0.1c0.5,0,0.9,0.1,1.1,0.3c0.2,0.2,0.4,0.5,0.4,0.9h-0.8
		c0-0.2-0.1-0.3-0.2-0.4s-0.3-0.1-0.5-0.1s-0.4,0-0.6,0.1c-0.1,0.1-0.1,0.1-0.1,0.2s0,0.2,0.1,0.2c0.1,0.1,0.3,0.2,0.7,0.3
		s0.7,0.2,0.9,0.3s0.3,0.2,0.4,0.4s0.2,0.4,0.2,0.6s-0.1,0.4-0.2,0.7c-0.1,0.2-0.3,0.3-0.6,0.4c-0.2,0.1-0.5,0.1-0.9,0.1
		c-0.5,0-0.9-0.1-1.2-0.3C59.4,29.4,59.2,29,59.2,28.6"/>
	<rect x="63" y="25.9" class="st0" width="0.8" height="4"/>
	<polygon class="st0" points="64.6,29.8 64.6,25.9 65.4,25.9 67,28.5 67,25.9 67.8,25.9 67.8,29.8 67,29.8 65.4,27.3 65.4,29.8 	"/>
	<path class="st0" d="M70.5,28.4v-0.7h1.7v1.6c-0.2,0.2-0.4,0.3-0.7,0.4s-0.7,0.2-1,0.2c-0.4,0-0.8-0.1-1.1-0.3
		c-0.3-0.2-0.6-0.4-0.7-0.8c-0.2-0.3-0.2-0.7-0.2-1.1s0.1-0.8,0.3-1.1c0.2-0.3,0.4-0.6,0.8-0.7c0.2-0.1,0.6-0.2,1-0.2
		c0.5,0,0.9,0.1,1.1,0.3c0.3,0.2,0.4,0.5,0.6,0.9L71.5,27c-0.1-0.2-0.2-0.3-0.3-0.4s-0.3-0.2-0.6-0.2s-0.6,0.1-0.8,0.3
		c-0.2,0.2-0.3,0.6-0.3,1c0,0.5,0.1,0.8,0.3,1.1c0.2,0.2,0.5,0.3,0.8,0.3c0.2,0,0.3,0,0.5-0.1s0.3-0.1,0.4-0.2v-0.5L70.5,28.4
		L70.5,28.4z"/>
	<polygon class="st0" points="73,29.8 73,25.9 73.8,25.9 73.8,27.5 75.3,27.5 75.3,25.9 76.1,25.9 76.1,29.8 75.3,29.8 75.3,28.1 
		73.8,28.1 73.8,29.8 	"/>
	<path class="st0" d="M77,25.9h0.8V28c0,0.3,0,0.6,0,0.7c0,0.2,0.1,0.3,0.2,0.4c0.1,0.1,0.3,0.1,0.5,0.1s0.4,0,0.5-0.1
		s0.2-0.2,0.2-0.3s0-0.3,0-0.7v-2.2H80V28c0,0.5,0,0.8-0.1,1c0,0.2-0.1,0.4-0.2,0.5c-0.1,0.1-0.3,0.2-0.5,0.3
		c-0.2,0.1-0.4,0.1-0.8,0.1c-0.4,0-0.7,0-0.9-0.1s-0.3-0.2-0.4-0.3s-0.2-0.3-0.2-0.4c-0.1-0.2-0.1-0.6-0.1-1L77,25.9L77,25.9z"/>
	<path class="st0" d="M84.6,29.8h-0.9l-0.3-0.9h-1.6l-0.3,0.9h-1l1.6-4H83L84.6,29.8z M83.1,28.3l-0.6-1.5l-0.6,1.5H83.1z"/>
	<polygon class="st0" points="87.2,29.8 87.2,26.6 86.1,26.6 86.1,25.9 89.2,25.9 89.2,26.6 88,26.6 88,29.8 	"/>
	<path class="st0" d="M89.4,27.9c0-0.4,0.1-0.8,0.2-1c0.1-0.2,0.2-0.4,0.4-0.6s0.3-0.3,0.5-0.3c0.2-0.1,0.5-0.2,0.9-0.2
		c0.6,0,1.1,0.2,1.4,0.6c0.3,0.4,0.5,0.9,0.5,1.5c0,0.7-0.2,1.1-0.5,1.5C92.5,29.7,92,30,91.4,30s-1.1-0.2-1.4-0.6
		C89.6,29,89.4,28.5,89.4,27.9 M90.3,27.9c0,0.4,0.1,0.8,0.3,1s0.5,0.3,0.8,0.3s0.6-0.1,0.8-0.3c0.2-0.2,0.3-0.6,0.3-1
		s-0.1-0.8-0.3-1s-0.4-0.3-0.8-0.3s-0.6,0.1-0.8,0.3C90.4,27.1,90.3,27.4,90.3,27.9"/>
	<polygon class="st0" points="93.9,29.8 93.9,25.9 94.7,25.9 96.3,28.5 96.3,25.9 97.1,25.9 97.1,29.8 96.3,29.8 94.7,27.3 
		94.7,29.8 	"/>
	<path class="st0" d="M99.8,28.4v-0.7h1.7v1.6c-0.2,0.2-0.4,0.3-0.7,0.4s-0.7,0.2-1,0.2c-0.4,0-0.8-0.1-1.1-0.3
		c-0.3-0.2-0.6-0.4-0.7-0.8c-0.2-0.3-0.2-0.7-0.2-1.1s0.1-0.8,0.3-1.1c0.2-0.3,0.4-0.6,0.8-0.7c0.2-0.1,0.6-0.2,1-0.2
		c0.5,0,0.9,0.1,1.1,0.3c0.3,0.2,0.4,0.5,0.6,0.9l-0.8,0.1c-0.1-0.2-0.2-0.3-0.3-0.4s-0.3-0.2-0.6-0.2s-0.6,0.1-0.8,0.3
		c-0.2,0.2-0.3,0.6-0.3,1c0,0.5,0.1,0.8,0.3,1.1c0.2,0.2,0.5,0.3,0.8,0.3c0.2,0,0.3,0,0.5-0.1s0.3-0.1,0.4-0.2v-0.5L99.8,28.4
		L99.8,28.4z"/>
	<polygon class="st0" points="102.3,29.8 102.3,25.9 105,25.9 105,26.6 103.1,26.6 103.1,27.5 104.7,27.5 104.7,28.2 103.1,28.2 
		103.1,29.8 	"/>
	<path class="st0" d="M109,29.8h-0.9l-0.3-0.9h-1.6l-0.3,0.9H105l1.6-4h0.9L109,29.8z M107.5,28.3l-0.6-1.5l-0.6,1.5H107.5z"/>
	<polygon class="st0" points="109.4,29.8 109.4,25.9 110.2,25.9 111.8,28.5 111.8,25.9 112.5,25.9 112.5,29.8 111.7,29.8 
		110.1,27.3 110.1,29.8 	"/>
	<path class="st0" d="M115.2,28.4v-0.7h1.7v1.6c-0.2,0.2-0.4,0.3-0.7,0.4s-0.7,0.2-1,0.2c-0.4,0-0.8-0.1-1.1-0.3
		c-0.3-0.2-0.6-0.4-0.7-0.8c-0.2-0.3-0.2-0.7-0.2-1.1s0.1-0.8,0.3-1.1c0.2-0.3,0.4-0.6,0.8-0.7c0.2-0.1,0.6-0.2,1-0.2
		c0.5,0,0.9,0.1,1.1,0.3c0.3,0.2,0.4,0.5,0.6,0.9l-0.8,0.1c-0.1-0.2-0.2-0.3-0.3-0.4s-0.3-0.2-0.6-0.2s-0.6,0.1-0.8,0.3
		c-0.2,0.2-0.3,0.6-0.3,1c0,0.5,0.1,0.8,0.3,1.1c0.2,0.2,0.5,0.3,0.8,0.3c0.2,0,0.3,0,0.5-0.1s0.3-0.1,0.4-0.2v-0.5L115.2,28.4
		L115.2,28.4z"/>
</g>
</svg>
